<svg xmlns="http://www.w3.org/2000/svg" width="29" height="30" fill="none" viewBox="0 0 29 30"><mask id="path-1-outside-1" width="29" height="29" x="0" y=".5" fill="#000" maskUnits="userSpaceOnUse"><rect width="29" height="29" y=".5" fill="#fff"/><path d="M9.66438 7.5C9.66438 9.70914 7.94865 11.5 5.83219 11.5C3.71573 11.5 2 9.70914 2 7.5C2 5.29086 3.71573 3.5 5.83219 3.5C7.94865 3.5 9.66438 5.29086 9.66438 7.5Z"/><path d="M24.9931 23.5C24.9931 25.7091 23.2774 27.5 21.1609 27.5C19.0445 27.5 17.3288 25.7091 17.3288 23.5C17.3288 21.2909 19.0445 19.5 21.1609 19.5C23.2774 19.5 24.9931 21.2909 24.9931 23.5Z"/><path d="M2 19.5H9.66438V27.5H2V19.5Z"/><path d="M17.3288 8.3L21.6644 3.77452L26 8.3L21.6644 12.8255L17.3288 8.3Z"/></mask><path stroke="#A93DDB" stroke-width="4" d="M9.66438 7.5C9.66438 9.70914 7.94865 11.5 5.83219 11.5C3.71573 11.5 2 9.70914 2 7.5C2 5.29086 3.71573 3.5 5.83219 3.5C7.94865 3.5 9.66438 5.29086 9.66438 7.5Z" mask="url(#path-1-outside-1)"/><path stroke="#A93DDB" stroke-width="4" d="M24.9931 23.5C24.9931 25.7091 23.2774 27.5 21.1609 27.5C19.0445 27.5 17.3288 25.7091 17.3288 23.5C17.3288 21.2909 19.0445 19.5 21.1609 19.5C23.2774 19.5 24.9931 21.2909 24.9931 23.5Z" mask="url(#path-1-outside-1)"/><path stroke="#A93DDB" stroke-width="4" d="M2 19.5H9.66438V27.5H2V19.5Z" mask="url(#path-1-outside-1)"/><path stroke="#A93DDB" stroke-width="4" d="M17.3288 8.3L21.6644 3.77452L26 8.3L21.6644 12.8255L17.3288 8.3Z" mask="url(#path-1-outside-1)"/></svg>